solid ASCII
  facet normal -1.000000e+00 0.000000e+00 0.000000e+00
    outer loop
      vertex   -7.250000e+00 2.980000e+01 1.250000e+00
      vertex   -7.250000e+00 2.980000e+01 1.035000e+01
      vertex   -7.250000e+00 3.380000e+01 1.250000e+00
    endloop
  endfacet
  facet normal -1.000000e+00 0.000000e+00 0.000000e+00
    outer loop
      vertex   -7.250000e+00 3.380000e+01 1.250000e+00
      vertex   -7.250000e+00 2.980000e+01 1.035000e+01
      vertex   -7.250000e+00 3.380000e+01 1.035000e+01
    endloop
  endfacet
  facet normal 3.062684e-17 -1.110223e-16 -1.000000e+00
    outer loop
      vertex   7.250000e+00 2.980000e+01 1.250000e+00
      vertex   -7.250000e+00 2.980000e+01 1.250000e+00
      vertex   7.250000e+00 3.380000e+01 1.250000e+00
    endloop
  endfacet
  facet normal -0.000000e+00 0.000000e+00 -1.000000e+00
    outer loop
      vertex   7.250000e+00 3.380000e+01 1.250000e+00
      vertex   -7.250000e+00 2.980000e+01 1.250000e+00
      vertex   -7.250000e+00 3.380000e+01 1.250000e+00
    endloop
  endfacet
  facet normal 1.000000e+00 -0.000000e+00 0.000000e+00
    outer loop
      vertex   7.250000e+00 2.980000e+01 1.035000e+01
      vertex   7.250000e+00 2.980000e+01 1.250000e+00
      vertex   7.250000e+00 3.380000e+01 1.035000e+01
    endloop
  endfacet
  facet normal 1.000000e+00 0.000000e+00 0.000000e+00
    outer loop
      vertex   7.250000e+00 3.380000e+01 1.035000e+01
      vertex   7.250000e+00 2.980000e+01 1.250000e+00
      vertex   7.250000e+00 3.380000e+01 1.250000e+00
    endloop
  endfacet
  facet normal -7.250436e-16 4.440892e-16 -1.000000e+00
    outer loop
      vertex   5.450000e+00 2.980000e+01 8.350000e+00
      vertex   3.000000e+00 2.980000e+01 8.350000e+00
      vertex   5.450000e+00 3.380000e+01 8.350000e+00
    endloop
  endfacet
  facet normal -0.000000e+00 0.000000e+00 -1.000000e+00
    outer loop
      vertex   5.450000e+00 3.380000e+01 8.350000e+00
      vertex   3.000000e+00 2.980000e+01 8.350000e+00
      vertex   3.000000e+00 3.380000e+01 8.350000e+00
    endloop
  endfacet
  facet normal -1.000000e+00 2.220446e-16 1.741526e-16
    outer loop
      vertex   5.450000e+00 2.980000e+01 3.250000e+00
      vertex   5.450000e+00 2.980000e+01 8.350000e+00
      vertex   5.450000e+00 3.380000e+01 3.250000e+00
    endloop
  endfacet
  facet normal -1.000000e+00 0.000000e+00 0.000000e+00
    outer loop
      vertex   5.450000e+00 3.380000e+01 3.250000e+00
      vertex   5.450000e+00 2.980000e+01 8.350000e+00
      vertex   5.450000e+00 3.380000e+01 8.350000e+00
    endloop
  endfacet
  facet normal 0.000000e+00 0.000000e+00 1.000000e+00
    outer loop
      vertex   -5.450000e+00 2.980000e+01 3.250000e+00
      vertex   5.450000e+00 2.980000e+01 3.250000e+00
      vertex   -5.450000e+00 3.380000e+01 3.250000e+00
    endloop
  endfacet
  facet normal -0.000000e+00 0.000000e+00 1.000000e+00
    outer loop
      vertex   -5.450000e+00 3.380000e+01 3.250000e+00
      vertex   5.450000e+00 2.980000e+01 3.250000e+00
      vertex   5.450000e+00 3.380000e+01 3.250000e+00
    endloop
  endfacet
  facet normal 1.000000e+00 -0.000000e+00 0.000000e+00
    outer loop
      vertex   -5.450000e+00 2.980000e+01 8.350000e+00
      vertex   -5.450000e+00 2.980000e+01 3.250000e+00
      vertex   -5.450000e+00 3.380000e+01 8.350000e+00
    endloop
  endfacet
  facet normal 1.000000e+00 0.000000e+00 0.000000e+00
    outer loop
      vertex   -5.450000e+00 3.380000e+01 8.350000e+00
      vertex   -5.450000e+00 2.980000e+01 3.250000e+00
      vertex   -5.450000e+00 3.380000e+01 3.250000e+00
    endloop
  endfacet
  facet normal 7.250436e-16 0.000000e+00 -1.000000e+00
    outer loop
      vertex   -3.000000e+00 2.980000e+01 8.350000e+00
      vertex   -5.450000e+00 2.980000e+01 8.350000e+00
      vertex   -3.000000e+00 3.380000e+01 8.350000e+00
    endloop
  endfacet
  facet normal 0.000000e+00 4.440892e-16 -1.000000e+00
    outer loop
      vertex   -3.000000e+00 3.380000e+01 8.350000e+00
      vertex   -5.450000e+00 2.980000e+01 8.350000e+00
      vertex   -5.450000e+00 3.380000e+01 8.350000e+00
    endloop
  endfacet
  facet normal 0.000000e+00 1.000000e+00 0.000000e+00
    outer loop
      vertex   -3.000000e+00 3.380000e+01 1.035000e+01
      vertex   -5.450000e+00 3.380000e+01 8.350000e+00
      vertex   -7.250000e+00 3.380000e+01 1.035000e+01
    endloop
  endfacet
  facet normal 0.000000e+00 1.000000e+00 0.000000e+00
    outer loop
      vertex   -7.250000e+00 3.380000e+01 1.035000e+01
      vertex   -5.450000e+00 3.380000e+01 8.350000e+00
      vertex   -5.450000e+00 3.380000e+01 3.250000e+00
    endloop
  endfacet
  facet normal 0.000000e+00 1.000000e+00 0.000000e+00
    outer loop
      vertex   -7.250000e+00 3.380000e+01 1.035000e+01
      vertex   -5.450000e+00 3.380000e+01 3.250000e+00
      vertex   -7.250000e+00 3.380000e+01 1.250000e+00
    endloop
  endfacet
  facet normal 0.000000e+00 1.000000e+00 0.000000e+00
    outer loop
      vertex   -7.250000e+00 3.380000e+01 1.250000e+00
      vertex   -5.450000e+00 3.380000e+01 3.250000e+00
      vertex   5.450000e+00 3.380000e+01 3.250000e+00
    endloop
  endfacet
  facet normal 0.000000e+00 1.000000e+00 0.000000e+00
    outer loop
      vertex   -7.250000e+00 3.380000e+01 1.250000e+00
      vertex   5.450000e+00 3.380000e+01 3.250000e+00
      vertex   7.250000e+00 3.380000e+01 1.250000e+00
    endloop
  endfacet
  facet normal 0.000000e+00 1.000000e+00 0.000000e+00
    outer loop
      vertex   7.250000e+00 3.380000e+01 1.250000e+00
      vertex   5.450000e+00 3.380000e+01 3.250000e+00
      vertex   5.450000e+00 3.380000e+01 8.350000e+00
    endloop
  endfacet
  facet normal 0.000000e+00 1.000000e+00 -0.000000e+00
    outer loop
      vertex   7.250000e+00 3.380000e+01 1.250000e+00
      vertex   5.450000e+00 3.380000e+01 8.350000e+00
      vertex   7.250000e+00 3.380000e+01 1.035000e+01
    endloop
  endfacet
  facet normal 0.000000e+00 1.000000e+00 0.000000e+00
    outer loop
      vertex   7.250000e+00 3.380000e+01 1.035000e+01
      vertex   5.450000e+00 3.380000e+01 8.350000e+00
      vertex   3.000000e+00 3.380000e+01 1.035000e+01
    endloop
  endfacet
  facet normal 0.000000e+00 1.000000e+00 0.000000e+00
    outer loop
      vertex   3.000000e+00 3.380000e+01 1.035000e+01
      vertex   5.450000e+00 3.380000e+01 8.350000e+00
      vertex   3.000000e+00 3.380000e+01 8.350000e+00
    endloop
  endfacet
  facet normal 0.000000e+00 1.000000e+00 0.000000e+00
    outer loop
      vertex   -3.000000e+00 3.380000e+01 1.035000e+01
      vertex   -3.000000e+00 3.380000e+01 8.350000e+00
      vertex   -5.450000e+00 3.380000e+01 8.350000e+00
    endloop
  endfacet
  facet normal 0.000000e+00 1.000000e+00 0.000000e+00
    outer loop
      vertex   7.250000e+00 2.980000e+01 1.035000e+01
      vertex   1.500000e+01 2.980000e+01 -9.200000e+00
      vertex   7.250000e+00 2.980000e+01 1.250000e+00
    endloop
  endfacet
  facet normal 0.000000e+00 1.000000e+00 0.000000e+00
    outer loop
      vertex   7.250000e+00 2.980000e+01 1.250000e+00
      vertex   1.500000e+01 2.980000e+01 -9.200000e+00
      vertex   -1.500000e+01 2.980000e+01 -9.200000e+00
    endloop
  endfacet
  facet normal 0.000000e+00 1.000000e+00 0.000000e+00
    outer loop
      vertex   7.250000e+00 2.980000e+01 1.250000e+00
      vertex   -1.500000e+01 2.980000e+01 -9.200000e+00
      vertex   -7.250000e+00 2.980000e+01 1.250000e+00
    endloop
  endfacet
  facet normal 0.000000e+00 1.000000e+00 -0.000000e+00
    outer loop
      vertex   -7.250000e+00 2.980000e+01 1.250000e+00
      vertex   -1.500000e+01 2.980000e+01 -9.200000e+00
      vertex   -7.250000e+00 2.980000e+01 1.035000e+01
    endloop
  endfacet
  facet normal 0.000000e+00 1.000000e+00 0.000000e+00
    outer loop
      vertex   -7.250000e+00 2.980000e+01 1.035000e+01
      vertex   -1.500000e+01 2.980000e+01 -9.200000e+00
      vertex   -1.500000e+01 2.980000e+01 2.080000e+01
    endloop
  endfacet
  facet normal 0.000000e+00 1.000000e+00 -0.000000e+00
    outer loop
      vertex   -7.250000e+00 2.980000e+01 1.035000e+01
      vertex   -1.500000e+01 2.980000e+01 2.080000e+01
      vertex   -7.250000e+00 2.980000e+01 2.080000e+01
    endloop
  endfacet
  facet normal -0.000000e+00 1.000000e+00 0.000000e+00
    outer loop
      vertex   7.250000e+00 2.980000e+01 2.080000e+01
      vertex   1.500000e+01 2.980000e+01 2.080000e+01
      vertex   7.250000e+00 2.980000e+01 1.035000e+01
    endloop
  endfacet
  facet normal -0.000000e+00 1.000000e+00 0.000000e+00
    outer loop
      vertex   7.250000e+00 2.980000e+01 1.035000e+01
      vertex   1.500000e+01 2.980000e+01 2.080000e+01
      vertex   1.500000e+01 2.980000e+01 -9.200000e+00
    endloop
  endfacet
  facet normal 0.000000e+00 1.000000e+00 0.000000e+00
    outer loop
      vertex   5.450000e+00 2.980000e+01 8.350000e+00
      vertex   5.450000e+00 2.980000e+01 3.250000e+00
      vertex   3.000000e+00 2.980000e+01 8.350000e+00
    endloop
  endfacet
  facet normal 0.000000e+00 1.000000e+00 0.000000e+00
    outer loop
      vertex   3.000000e+00 2.980000e+01 8.350000e+00
      vertex   5.450000e+00 2.980000e+01 3.250000e+00
      vertex   -5.450000e+00 2.980000e+01 3.250000e+00
    endloop
  endfacet
  facet normal 0.000000e+00 1.000000e+00 0.000000e+00
    outer loop
      vertex   3.000000e+00 2.980000e+01 8.350000e+00
      vertex   -5.450000e+00 2.980000e+01 3.250000e+00
      vertex   -3.000000e+00 2.980000e+01 8.350000e+00
    endloop
  endfacet
  facet normal 0.000000e+00 1.000000e+00 0.000000e+00
    outer loop
      vertex   -3.000000e+00 2.980000e+01 8.350000e+00
      vertex   -5.450000e+00 2.980000e+01 3.250000e+00
      vertex   -5.450000e+00 2.980000e+01 8.350000e+00
    endloop
  endfacet
  facet normal 1.000000e+00 0.000000e+00 -0.000000e+00
    outer loop
      vertex   -3.000000e+00 3.380000e+01 8.350000e+00
      vertex   -3.000000e+00 3.380000e+01 1.035000e+01
      vertex   -3.000000e+00 2.980000e+01 8.350000e+00
    endloop
  endfacet
  facet normal 1.000000e+00 0.000000e+00 -0.000000e+00
    outer loop
      vertex   -3.000000e+00 2.980000e+01 8.350000e+00
      vertex   -3.000000e+00 3.380000e+01 1.035000e+01
      vertex   -3.000000e+00 2.780000e+01 1.035000e+01
    endloop
  endfacet
  facet normal 1.000000e+00 0.000000e+00 0.000000e+00
    outer loop
      vertex   -3.000000e+00 2.980000e+01 8.350000e+00
      vertex   -3.000000e+00 2.780000e+01 1.035000e+01
      vertex   -3.000000e+00 2.780000e+01 8.350000e+00
    endloop
  endfacet
  facet normal 0.000000e+00 0.000000e+00 1.000000e+00
    outer loop
      vertex   3.000000e+00 2.980000e+01 8.350000e+00
      vertex   -3.000000e+00 2.980000e+01 8.350000e+00
      vertex   3.000000e+00 2.780000e+01 8.350000e+00
    endloop
  endfacet
  facet normal 0.000000e+00 0.000000e+00 1.000000e+00
    outer loop
      vertex   3.000000e+00 2.780000e+01 8.350000e+00
      vertex   -3.000000e+00 2.980000e+01 8.350000e+00
      vertex   -3.000000e+00 2.780000e+01 8.350000e+00
    endloop
  endfacet
  facet normal -1.000000e+00 0.000000e+00 0.000000e+00
    outer loop
      vertex   3.000000e+00 2.780000e+01 8.350000e+00
      vertex   3.000000e+00 2.780000e+01 1.035000e+01
      vertex   3.000000e+00 2.980000e+01 8.350000e+00
    endloop
  endfacet
  facet normal -1.000000e+00 0.000000e+00 0.000000e+00
    outer loop
      vertex   3.000000e+00 2.980000e+01 8.350000e+00
      vertex   3.000000e+00 2.780000e+01 1.035000e+01
      vertex   3.000000e+00 3.380000e+01 1.035000e+01
    endloop
  endfacet
  facet normal -1.000000e+00 0.000000e+00 0.000000e+00
    outer loop
      vertex   3.000000e+00 2.980000e+01 8.350000e+00
      vertex   3.000000e+00 3.380000e+01 1.035000e+01
      vertex   3.000000e+00 3.380000e+01 8.350000e+00
    endloop
  endfacet
  facet normal 0.000000e+00 0.000000e+00 1.000000e+00
    outer loop
      vertex   7.250000e+00 3.380000e+01 1.035000e+01
      vertex   3.000000e+00 3.380000e+01 1.035000e+01
      vertex   7.250000e+00 2.980000e+01 1.035000e+01
    endloop
  endfacet
  facet normal 0.000000e+00 0.000000e+00 1.000000e+00
    outer loop
      vertex   7.250000e+00 2.980000e+01 1.035000e+01
      vertex   3.000000e+00 3.380000e+01 1.035000e+01
      vertex   3.000000e+00 2.780000e+01 1.035000e+01
    endloop
  endfacet
  facet normal 0.000000e+00 0.000000e+00 1.000000e+00
    outer loop
      vertex   7.250000e+00 2.980000e+01 1.035000e+01
      vertex   3.000000e+00 2.780000e+01 1.035000e+01
      vertex   7.250000e+00 2.780000e+01 1.035000e+01
    endloop
  endfacet
  facet normal -1.000000e+00 -0.000000e+00 -0.000000e+00
    outer loop
      vertex   7.250000e+00 2.980000e+01 2.080000e+01
      vertex   7.250000e+00 2.980000e+01 1.035000e+01
      vertex   7.250000e+00 2.780000e+01 2.080000e+01
    endloop
  endfacet
  facet normal -1.000000e+00 0.000000e+00 0.000000e+00
    outer loop
      vertex   7.250000e+00 2.780000e+01 2.080000e+01
      vertex   7.250000e+00 2.980000e+01 1.035000e+01
      vertex   7.250000e+00 2.780000e+01 1.035000e+01
    endloop
  endfacet
  facet normal 0.000000e+00 0.000000e+00 1.000000e+00
    outer loop
      vertex   1.500000e+01 2.980000e+01 2.080000e+01
      vertex   7.250000e+00 2.980000e+01 2.080000e+01
      vertex   1.500000e+01 2.780000e+01 2.080000e+01
    endloop
  endfacet
  facet normal 0.000000e+00 0.000000e+00 1.000000e+00
    outer loop
      vertex   1.500000e+01 2.780000e+01 2.080000e+01
      vertex   7.250000e+00 2.980000e+01 2.080000e+01
      vertex   7.250000e+00 2.780000e+01 2.080000e+01
    endloop
  endfacet
  facet normal 1.000000e+00 0.000000e+00 -0.000000e+00
    outer loop
      vertex   1.500000e+01 2.980000e+01 -9.200000e+00
      vertex   1.500000e+01 2.980000e+01 2.080000e+01
      vertex   1.500000e+01 2.780000e+01 -9.200000e+00
    endloop
  endfacet
  facet normal 1.000000e+00 0.000000e+00 0.000000e+00
    outer loop
      vertex   1.500000e+01 2.780000e+01 -9.200000e+00
      vertex   1.500000e+01 2.980000e+01 2.080000e+01
      vertex   1.500000e+01 2.780000e+01 2.080000e+01
    endloop
  endfacet
  facet normal 0.000000e+00 0.000000e+00 -1.000000e+00
    outer loop
      vertex   -1.500000e+01 2.980000e+01 -9.200000e+00
      vertex   1.500000e+01 2.980000e+01 -9.200000e+00
      vertex   -1.500000e+01 2.780000e+01 -9.200000e+00
    endloop
  endfacet
  facet normal 0.000000e+00 0.000000e+00 -1.000000e+00
    outer loop
      vertex   -1.500000e+01 2.780000e+01 -9.200000e+00
      vertex   1.500000e+01 2.980000e+01 -9.200000e+00
      vertex   1.500000e+01 2.780000e+01 -9.200000e+00
    endloop
  endfacet
  facet normal -1.000000e+00 -0.000000e+00 -0.000000e+00
    outer loop
      vertex   -1.500000e+01 2.980000e+01 2.080000e+01
      vertex   -1.500000e+01 2.980000e+01 -9.200000e+00
      vertex   -1.500000e+01 2.780000e+01 2.080000e+01
    endloop
  endfacet
  facet normal -1.000000e+00 0.000000e+00 0.000000e+00
    outer loop
      vertex   -1.500000e+01 2.780000e+01 2.080000e+01
      vertex   -1.500000e+01 2.980000e+01 -9.200000e+00
      vertex   -1.500000e+01 2.780000e+01 -9.200000e+00
    endloop
  endfacet
  facet normal 0.000000e+00 0.000000e+00 1.000000e+00
    outer loop
      vertex   -7.250000e+00 2.980000e+01 2.080000e+01
      vertex   -1.500000e+01 2.980000e+01 2.080000e+01
      vertex   -7.250000e+00 2.780000e+01 2.080000e+01
    endloop
  endfacet
  facet normal 0.000000e+00 0.000000e+00 1.000000e+00
    outer loop
      vertex   -7.250000e+00 2.780000e+01 2.080000e+01
      vertex   -1.500000e+01 2.980000e+01 2.080000e+01
      vertex   -1.500000e+01 2.780000e+01 2.080000e+01
    endloop
  endfacet
  facet normal 1.000000e+00 0.000000e+00 -0.000000e+00
    outer loop
      vertex   -7.250000e+00 2.980000e+01 1.035000e+01
      vertex   -7.250000e+00 2.980000e+01 2.080000e+01
      vertex   -7.250000e+00 2.780000e+01 1.035000e+01
    endloop
  endfacet
  facet normal 1.000000e+00 0.000000e+00 0.000000e+00
    outer loop
      vertex   -7.250000e+00 2.780000e+01 1.035000e+01
      vertex   -7.250000e+00 2.980000e+01 2.080000e+01
      vertex   -7.250000e+00 2.780000e+01 2.080000e+01
    endloop
  endfacet
  facet normal 0.000000e+00 0.000000e+00 1.000000e+00
    outer loop
      vertex   -7.250000e+00 2.780000e+01 1.035000e+01
      vertex   -3.000000e+00 2.780000e+01 1.035000e+01
      vertex   -7.250000e+00 2.980000e+01 1.035000e+01
    endloop
  endfacet
  facet normal -0.000000e+00 0.000000e+00 1.000000e+00
    outer loop
      vertex   -7.250000e+00 2.980000e+01 1.035000e+01
      vertex   -3.000000e+00 2.780000e+01 1.035000e+01
      vertex   -3.000000e+00 3.380000e+01 1.035000e+01
    endloop
  endfacet
  facet normal 0.000000e+00 0.000000e+00 1.000000e+00
    outer loop
      vertex   -7.250000e+00 2.980000e+01 1.035000e+01
      vertex   -3.000000e+00 3.380000e+01 1.035000e+01
      vertex   -7.250000e+00 3.380000e+01 1.035000e+01
    endloop
  endfacet
  facet normal -0.000000e+00 -1.000000e+00 -0.000000e+00
    outer loop
      vertex   -3.000000e+00 2.780000e+01 1.035000e+01
      vertex   -7.250000e+00 2.780000e+01 1.035000e+01
      vertex   -3.000000e+00 2.780000e+01 8.350000e+00
    endloop
  endfacet
  facet normal -0.000000e+00 -1.000000e+00 0.000000e+00
    outer loop
      vertex   -3.000000e+00 2.780000e+01 8.350000e+00
      vertex   -7.250000e+00 2.780000e+01 1.035000e+01
      vertex   -1.500000e+01 2.780000e+01 -9.200000e+00
    endloop
  endfacet
  facet normal 0.000000e+00 -1.000000e+00 -0.000000e+00
    outer loop
      vertex   -3.000000e+00 2.780000e+01 8.350000e+00
      vertex   -1.500000e+01 2.780000e+01 -9.200000e+00
      vertex   3.000000e+00 2.780000e+01 8.350000e+00
    endloop
  endfacet
  facet normal 0.000000e+00 -1.000000e+00 -0.000000e+00
    outer loop
      vertex   3.000000e+00 2.780000e+01 8.350000e+00
      vertex   -1.500000e+01 2.780000e+01 -9.200000e+00
      vertex   1.500000e+01 2.780000e+01 -9.200000e+00
    endloop
  endfacet
  facet normal 0.000000e+00 -1.000000e+00 0.000000e+00
    outer loop
      vertex   3.000000e+00 2.780000e+01 8.350000e+00
      vertex   1.500000e+01 2.780000e+01 -9.200000e+00
      vertex   7.250000e+00 2.780000e+01 1.035000e+01
    endloop
  endfacet
  facet normal 0.000000e+00 -1.000000e+00 0.000000e+00
    outer loop
      vertex   7.250000e+00 2.780000e+01 1.035000e+01
      vertex   1.500000e+01 2.780000e+01 -9.200000e+00
      vertex   1.500000e+01 2.780000e+01 2.080000e+01
    endloop
  endfacet
  facet normal 0.000000e+00 -1.000000e+00 0.000000e+00
    outer loop
      vertex   7.250000e+00 2.780000e+01 1.035000e+01
      vertex   1.500000e+01 2.780000e+01 2.080000e+01
      vertex   7.250000e+00 2.780000e+01 2.080000e+01
    endloop
  endfacet
  facet normal -0.000000e+00 -1.000000e+00 -0.000000e+00
    outer loop
      vertex   -7.250000e+00 2.780000e+01 2.080000e+01
      vertex   -1.500000e+01 2.780000e+01 2.080000e+01
      vertex   -7.250000e+00 2.780000e+01 1.035000e+01
    endloop
  endfacet
  facet normal -0.000000e+00 -1.000000e+00 0.000000e+00
    outer loop
      vertex   -7.250000e+00 2.780000e+01 1.035000e+01
      vertex   -1.500000e+01 2.780000e+01 2.080000e+01
      vertex   -1.500000e+01 2.780000e+01 -9.200000e+00
    endloop
  endfacet
  facet normal -0.000000e+00 -1.000000e+00 0.000000e+00
    outer loop
      vertex   7.250000e+00 2.780000e+01 1.035000e+01
      vertex   3.000000e+00 2.780000e+01 1.035000e+01
      vertex   3.000000e+00 2.780000e+01 8.350000e+00
    endloop
  endfacet
endsolid
